<svg width="40.000000" height="40.000000" viewBox="0 0 40 40" fill="none" xmlns="http://www.w3.org/2000/svg" xmlns:xlink="http://www.w3.org/1999/xlink">
	<desc>
			Created with Pixso.
	</desc>
	<defs/>
	<rect id="back" rx="20.000000" width="40.000000" height="40.000000" fill="#FF3E79" fill-opacity="1.000000"/>
	<path id="icon" d="M23.5007 22.0005L22.7107 22.0005L22.4307 21.7305C23.6306 20.3306 24.2507 18.4204 23.9106 16.3906C23.4407 13.6108 21.1206 11.3906 18.3206 11.0508C14.0906 10.5308 10.5305 14.0908 11.0505 18.3208C11.3906 21.1206 13.6106 23.4404 16.3906 23.9106C18.4207 24.2505 20.3306 23.6309 21.7307 22.4307L22.0007 22.7104L22.0007 23.5005L26.2607 27.7505C26.6707 28.1606 27.3306 28.1606 27.7407 27.7505L27.7507 27.7407C28.1606 27.3306 28.1606 26.6704 27.7507 26.2607L23.5007 22.0005ZM13.0007 17.5005C13.0007 19.9907 15.0107 22.0005 17.5007 22.0005C19.9907 22.0005 22.0007 19.9907 22.0007 17.5005C22.0007 15.0107 19.9907 13.0005 17.5007 13.0005C15.0107 13.0005 13.0007 15.0107 13.0007 17.5005Z" clip-rule="evenodd" fill="#FFFFFF" fill-opacity="1.000000" fill-rule="evenodd"/>
</svg>
